<?xml version="1.0" encoding="utf-8" standalone="no"?>
<!DOCTYPE svg PUBLIC "-//W3C//DTD SVG 1.1//EN"
  "http://www.w3.org/Graphics/SVG/1.1/DTD/svg11.dtd">
<svg xmlns:xlink="http://www.w3.org/1999/xlink" width="288pt" height="288pt" viewBox="0 0 288 288" xmlns="http://www.w3.org/2000/svg" version="1.1">
 <metadata>
  <rdf:RDF xmlns:dc="http://purl.org/dc/elements/1.1/" xmlns:cc="http://creativecommons.org/ns#" xmlns:rdf="http://www.w3.org/1999/02/22-rdf-syntax-ns#">
   <cc:Work>
    <dc:type rdf:resource="http://purl.org/dc/dcmitype/StillImage"/>
    <dc:date>2025-04-09T03:00:51.226798</dc:date>
    <dc:format>image/svg+xml</dc:format>
    <dc:creator>
     <cc:Agent>
      <dc:title>Matplotlib v3.10.1, https://matplotlib.org/</dc:title>
     </cc:Agent>
    </dc:creator>
   </cc:Work>
  </rdf:RDF>
 </metadata>
 <defs>
  <style type="text/css">*{stroke-linejoin: round; stroke-linecap: butt}</style>
 </defs>
 <g id="figure_1">
  <g id="patch_1">
   <path d="M 0 288 
L 288 288 
L 288 0 
L 0 0 
z
" style="fill: #ffffff"/>
  </g>
  <g id="axes_1">
   <g id="patch_2">
    <path d="M 36 256.32 
L 259.2 256.32 
L 259.2 34.56 
L 36 34.56 
z
" style="fill: #ffffff"/>
   </g>
   <g id="matplotlib.axis_1">
    <g id="xtick_1">
     <g id="line2d_1">
      <path d="M 46.145455 256.32 
L 46.145455 34.56 
" clip-path="url(#pd48f4ec94a)" style="fill: none; stroke: #b0b0b0; stroke-width: 0.8; stroke-linecap: square"/>
     </g>
     <g id="line2d_2">
      <defs>
       <path id="m056051cfc8" d="M 0 0 
L 0 3.5 
" style="stroke: #000000; stroke-width: 0.8"/>
      </defs>
      <g>
       <use xlink:href="#m056051cfc8" x="46.145455" y="256.32" style="stroke: #000000; stroke-width: 0.8"/>
      </g>
     </g>
     <g id="text_1">
      <!-- $\mathdefault{10^{3}}$ -->
      <g transform="translate(39.1785 270.238498) scale(0.1 -0.1)">
       <defs>
        <path id="CMR17-31" d="M 1702 4058 
C 1702 4192 1696 4192 1606 4192 
C 1357 3916 979 3827 621 3827 
C 602 3827 570 3827 563 3808 
C 557 3795 557 3782 557 3648 
C 755 3648 1088 3686 1344 3839 
L 1344 461 
C 1344 236 1331 160 781 160 
L 589 160 
L 589 0 
C 896 0 1216 0 1523 0 
C 1830 0 2150 0 2458 0 
L 2458 160 
L 2266 160 
C 1715 160 1702 230 1702 458 
L 1702 4058 
z
" transform="scale(0.015625)"/>
        <path id="CMR17-30" d="M 2688 2025 
C 2688 2416 2682 3080 2413 3591 
C 2176 4039 1798 4198 1466 4198 
C 1158 4198 768 4058 525 3597 
C 269 3118 243 2524 243 2025 
C 243 1661 250 1106 448 619 
C 723 -39 1216 -128 1466 -128 
C 1760 -128 2208 -7 2470 600 
C 2662 1042 2688 1559 2688 2025 
z
M 1466 -26 
C 1056 -26 813 325 723 812 
C 653 1188 653 1738 653 2096 
C 653 2588 653 2997 736 3387 
C 858 3929 1216 4096 1466 4096 
C 1728 4096 2067 3923 2189 3400 
C 2272 3036 2278 2607 2278 2096 
C 2278 1680 2278 1169 2202 792 
C 2067 95 1690 -26 1466 -26 
z
" transform="scale(0.015625)"/>
        <path id="CMR17-33" d="M 1414 2157 
C 1984 2157 2234 1662 2234 1090 
C 2234 320 1824 25 1453 25 
C 1114 25 563 194 390 693 
C 422 680 454 680 486 680 
C 640 680 755 782 755 948 
C 755 1133 614 1216 486 1216 
C 378 1216 211 1165 211 926 
C 211 335 787 -128 1466 -128 
C 2176 -128 2720 430 2720 1085 
C 2720 1707 2208 2157 1600 2227 
C 2086 2328 2554 2756 2554 3329 
C 2554 3820 2048 4179 1472 4179 
C 890 4179 378 3829 378 3329 
C 378 3110 544 3072 627 3072 
C 762 3072 877 3155 877 3321 
C 877 3486 762 3569 627 3569 
C 602 3569 570 3569 544 3557 
C 730 3959 1235 4032 1459 4032 
C 1683 4032 2106 3925 2106 3320 
C 2106 3143 2080 2828 1862 2550 
C 1670 2304 1453 2304 1242 2284 
C 1210 2284 1062 2269 1037 2269 
C 992 2263 966 2257 966 2208 
C 966 2163 973 2157 1101 2157 
L 1414 2157 
z
" transform="scale(0.015625)"/>
       </defs>
       <use xlink:href="#CMR17-31" transform="scale(0.996264)"/>
       <use xlink:href="#CMR17-30" transform="translate(45.690477 0) scale(0.996264)"/>
       <use xlink:href="#CMR17-33" transform="translate(91.380954 36.153639) scale(0.697382)"/>
      </g>
     </g>
    </g>
    <g id="xtick_2">
     <g id="line2d_3">
      <path d="M 176.814959 256.32 
L 176.814959 34.56 
" clip-path="url(#pd48f4ec94a)" style="fill: none; stroke: #b0b0b0; stroke-width: 0.8; stroke-linecap: square"/>
     </g>
     <g id="line2d_4">
      <g>
       <use xlink:href="#m056051cfc8" x="176.814959" y="256.32" style="stroke: #000000; stroke-width: 0.8"/>
      </g>
     </g>
     <g id="text_2">
      <!-- $\mathdefault{10^{4}}$ -->
      <g transform="translate(169.848005 270.238498) scale(0.1 -0.1)">
       <defs>
        <path id="CMR17-34" d="M 2150 4122 
C 2150 4256 2144 4256 2029 4256 
L 128 1254 
L 128 1088 
L 1779 1088 
L 1779 457 
C 1779 224 1766 160 1318 160 
L 1197 160 
L 1197 0 
C 1402 0 1747 0 1965 0 
C 2182 0 2528 0 2733 0 
L 2733 160 
L 2611 160 
C 2163 160 2150 224 2150 457 
L 2150 1088 
L 2803 1088 
L 2803 1254 
L 2150 1254 
L 2150 4122 
z
M 1798 3703 
L 1798 1254 
L 256 1254 
L 1798 3703 
z
" transform="scale(0.015625)"/>
       </defs>
       <use xlink:href="#CMR17-31" transform="scale(0.996264)"/>
       <use xlink:href="#CMR17-30" transform="translate(45.690477 0) scale(0.996264)"/>
       <use xlink:href="#CMR17-34" transform="translate(91.380954 36.153639) scale(0.697382)"/>
      </g>
     </g>
    </g>
    <g id="xtick_3">
     <g id="line2d_5">
      <path d="M 40.166346 256.32 
L 40.166346 34.56 
" clip-path="url(#pd48f4ec94a)" style="fill: none; stroke-dasharray: 0.3,0.495; stroke-dashoffset: 0; stroke: #b0b0b0; stroke-width: 0.3"/>
     </g>
     <g id="line2d_6">
      <defs>
       <path id="mef0a5d2666" d="M 0 0 
L 0 2 
" style="stroke: #000000; stroke-width: 0.6"/>
      </defs>
      <g>
       <use xlink:href="#mef0a5d2666" x="40.166346" y="256.32" style="stroke: #000000; stroke-width: 0.6"/>
      </g>
     </g>
    </g>
    <g id="xtick_4">
     <g id="line2d_7">
      <path d="M 85.480895 256.32 
L 85.480895 34.56 
" clip-path="url(#pd48f4ec94a)" style="fill: none; stroke-dasharray: 0.3,0.495; stroke-dashoffset: 0; stroke: #b0b0b0; stroke-width: 0.3"/>
     </g>
     <g id="line2d_8">
      <g>
       <use xlink:href="#mef0a5d2666" x="85.480895" y="256.32" style="stroke: #000000; stroke-width: 0.6"/>
      </g>
     </g>
    </g>
    <g id="xtick_5">
     <g id="line2d_9">
      <path d="M 108.490653 256.32 
L 108.490653 34.56 
" clip-path="url(#pd48f4ec94a)" style="fill: none; stroke-dasharray: 0.3,0.495; stroke-dashoffset: 0; stroke: #b0b0b0; stroke-width: 0.3"/>
     </g>
     <g id="line2d_10">
      <g>
       <use xlink:href="#mef0a5d2666" x="108.490653" y="256.32" style="stroke: #000000; stroke-width: 0.6"/>
      </g>
     </g>
    </g>
    <g id="xtick_6">
     <g id="line2d_11">
      <path d="M 124.816335 256.32 
L 124.816335 34.56 
" clip-path="url(#pd48f4ec94a)" style="fill: none; stroke-dasharray: 0.3,0.495; stroke-dashoffset: 0; stroke: #b0b0b0; stroke-width: 0.3"/>
     </g>
     <g id="line2d_12">
      <g>
       <use xlink:href="#mef0a5d2666" x="124.816335" y="256.32" style="stroke: #000000; stroke-width: 0.6"/>
      </g>
     </g>
    </g>
    <g id="xtick_7">
     <g id="line2d_13">
      <path d="M 137.479519 256.32 
L 137.479519 34.56 
" clip-path="url(#pd48f4ec94a)" style="fill: none; stroke-dasharray: 0.3,0.495; stroke-dashoffset: 0; stroke: #b0b0b0; stroke-width: 0.3"/>
     </g>
     <g id="line2d_14">
      <g>
       <use xlink:href="#mef0a5d2666" x="137.479519" y="256.32" style="stroke: #000000; stroke-width: 0.6"/>
      </g>
     </g>
    </g>
    <g id="xtick_8">
     <g id="line2d_15">
      <path d="M 147.826093 256.32 
L 147.826093 34.56 
" clip-path="url(#pd48f4ec94a)" style="fill: none; stroke-dasharray: 0.3,0.495; stroke-dashoffset: 0; stroke: #b0b0b0; stroke-width: 0.3"/>
     </g>
     <g id="line2d_16">
      <g>
       <use xlink:href="#mef0a5d2666" x="147.826093" y="256.32" style="stroke: #000000; stroke-width: 0.6"/>
      </g>
     </g>
    </g>
    <g id="xtick_9">
     <g id="line2d_17">
      <path d="M 156.573997 256.32 
L 156.573997 34.56 
" clip-path="url(#pd48f4ec94a)" style="fill: none; stroke-dasharray: 0.3,0.495; stroke-dashoffset: 0; stroke: #b0b0b0; stroke-width: 0.3"/>
     </g>
     <g id="line2d_18">
      <g>
       <use xlink:href="#mef0a5d2666" x="156.573997" y="256.32" style="stroke: #000000; stroke-width: 0.6"/>
      </g>
     </g>
    </g>
    <g id="xtick_10">
     <g id="line2d_19">
      <path d="M 164.151776 256.32 
L 164.151776 34.56 
" clip-path="url(#pd48f4ec94a)" style="fill: none; stroke-dasharray: 0.3,0.495; stroke-dashoffset: 0; stroke: #b0b0b0; stroke-width: 0.3"/>
     </g>
     <g id="line2d_20">
      <g>
       <use xlink:href="#mef0a5d2666" x="164.151776" y="256.32" style="stroke: #000000; stroke-width: 0.6"/>
      </g>
     </g>
    </g>
    <g id="xtick_11">
     <g id="line2d_21">
      <path d="M 170.835851 256.32 
L 170.835851 34.56 
" clip-path="url(#pd48f4ec94a)" style="fill: none; stroke-dasharray: 0.3,0.495; stroke-dashoffset: 0; stroke: #b0b0b0; stroke-width: 0.3"/>
     </g>
     <g id="line2d_22">
      <g>
       <use xlink:href="#mef0a5d2666" x="170.835851" y="256.32" style="stroke: #000000; stroke-width: 0.6"/>
      </g>
     </g>
    </g>
    <g id="xtick_12">
     <g id="line2d_23">
      <path d="M 216.1504 256.32 
L 216.1504 34.56 
" clip-path="url(#pd48f4ec94a)" style="fill: none; stroke-dasharray: 0.3,0.495; stroke-dashoffset: 0; stroke: #b0b0b0; stroke-width: 0.3"/>
     </g>
     <g id="line2d_24">
      <g>
       <use xlink:href="#mef0a5d2666" x="216.1504" y="256.32" style="stroke: #000000; stroke-width: 0.6"/>
      </g>
     </g>
    </g>
    <g id="xtick_13">
     <g id="line2d_25">
      <path d="M 239.160157 256.32 
L 239.160157 34.56 
" clip-path="url(#pd48f4ec94a)" style="fill: none; stroke-dasharray: 0.3,0.495; stroke-dashoffset: 0; stroke: #b0b0b0; stroke-width: 0.3"/>
     </g>
     <g id="line2d_26">
      <g>
       <use xlink:href="#mef0a5d2666" x="239.160157" y="256.32" style="stroke: #000000; stroke-width: 0.6"/>
      </g>
     </g>
    </g>
    <g id="xtick_14">
     <g id="line2d_27">
      <path d="M 255.48584 256.32 
L 255.48584 34.56 
" clip-path="url(#pd48f4ec94a)" style="fill: none; stroke-dasharray: 0.3,0.495; stroke-dashoffset: 0; stroke: #b0b0b0; stroke-width: 0.3"/>
     </g>
     <g id="line2d_28">
      <g>
       <use xlink:href="#mef0a5d2666" x="255.48584" y="256.32" style="stroke: #000000; stroke-width: 0.6"/>
      </g>
     </g>
    </g>
    <g id="text_3">
     <!-- Request Frequency (Hz) -->
     <g transform="translate(97.150217 283.647657) scale(0.1 -0.1)">
      <defs>
       <path id="CMSS17-52" d="M 2522 2109 
L 2534 2115 
C 3533 2459 3539 3147 3539 3268 
C 3539 3873 2925 4453 2003 4453 
L 570 4453 
L 570 32 
L 1094 32 
L 1094 2048 
L 2035 2048 
L 3168 32 
L 3706 32 
L 2522 2109 
z
M 1094 2437 
L 1094 4096 
L 1933 4096 
C 2746 4096 3034 3637 3034 3267 
C 3034 2922 2778 2437 1933 2437 
L 1094 2437 
z
" transform="scale(0.015625)"/>
       <path id="CMSS17-65" d="M 2502 1377 
C 2502 1590 2490 2003 2285 2345 
C 2061 2713 1696 2816 1421 2816 
C 755 2816 192 2188 192 1375 
C 192 582 774 -64 1510 -64 
C 1798 -64 2150 19 2470 248 
C 2470 274 2458 414 2451 420 
C 2451 433 2432 630 2432 656 
C 2125 407 1773 325 1517 325 
C 1107 325 666 667 646 1377 
L 2502 1377 
z
M 698 1728 
C 781 2084 1062 2421 1421 2421 
C 1517 2421 1965 2421 2080 1728 
L 698 1728 
z
" transform="scale(0.015625)"/>
       <path id="CMSS17-71" d="M 2611 2816 
L 2138 2816 
L 2138 2428 
C 2112 2460 1818 2816 1318 2816 
C 736 2816 211 2228 211 1399 
C 211 633 653 -5 1229 -5 
C 1498 -5 1837 91 2125 365 
L 2125 -1216 
L 2611 -1216 
L 2611 2816 
z
M 2138 914 
C 2138 832 2138 718 1939 554 
C 1888 510 1747 384 1504 384 
C 1050 384 698 850 698 1399 
C 698 2011 1126 2415 1562 2415 
C 1926 2415 2138 2061 2138 1797 
L 2138 914 
z
" transform="scale(0.015625)"/>
       <path id="CMSS17-75" d="M 2618 2739 
L 2131 2739 
L 2131 972 
C 2131 498 1786 306 1421 306 
C 998 306 960 447 960 709 
L 960 2739 
L 474 2739 
L 474 678 
C 474 179 646 -64 1088 -64 
C 1306 -64 1798 -13 2144 306 
L 2144 0 
L 2618 0 
L 2618 2739 
z
" transform="scale(0.015625)"/>
       <path id="CMSS17-73" d="M 2061 2627 
C 1683 2807 1389 2807 1197 2807 
C 742 2807 198 2648 198 2003 
C 198 1359 902 1218 1094 1179 
C 1389 1122 1715 1058 1715 740 
C 1715 337 1254 337 1171 337 
C 915 337 563 407 243 638 
L 166 210 
C 531 0 883 -64 1178 -64 
C 1965 -64 2163 416 2163 781 
C 2163 1094 1984 1305 1862 1401 
C 1651 1568 1574 1587 1050 1696 
C 960 1709 646 1779 646 2066 
C 646 2432 1050 2432 1139 2432 
C 1555 2432 1811 2303 1984 2208 
L 2061 2627 
z
" transform="scale(0.015625)"/>
       <path id="CMSS17-74" d="M 1069 2368 
L 1901 2368 
L 1901 2737 
L 1069 2737 
L 1069 3520 
L 614 3520 
L 614 2737 
L 109 2737 
L 109 2368 
L 602 2368 
L 602 749 
C 602 384 685 -64 1107 -64 
C 1427 -64 1722 25 2003 172 
L 1901 548 
C 1747 414 1562 337 1363 337 
C 1082 337 1069 696 1069 856 
L 1069 2368 
z
" transform="scale(0.015625)"/>
       <path id="CMSS17-46" d="M 2918 1984 
L 2918 2373 
L 1101 2373 
L 1101 3968 
L 1882 3968 
C 1958 3968 2035 3968 2112 3968 
L 3168 3968 
L 3168 4375 
L 563 4375 
L 563 -32 
L 1101 -32 
L 1101 1984 
L 2918 1984 
z
" transform="scale(0.015625)"/>
       <path id="CMSS17-72" d="M 954 1363 
C 954 1965 1395 2368 1958 2368 
L 1958 2789 
C 1549 2789 1165 2585 934 2253 
L 934 2758 
L 480 2758 
L 480 0 
L 954 0 
L 954 1363 
z
" transform="scale(0.015625)"/>
       <path id="CMSS17-6e" d="M 2618 1877 
C 2618 2283 2522 2816 1798 2816 
C 1389 2816 1120 2606 941 2389 
L 941 2758 
L 474 2758 
L 474 0 
L 960 0 
L 960 1559 
C 960 1964 1114 2428 1549 2428 
C 2112 2428 2131 2048 2131 1829 
L 2131 0 
L 2618 0 
L 2618 1877 
z
" transform="scale(0.015625)"/>
       <path id="CMSS17-63" d="M 2464 2541 
C 2464 2585 2170 2714 2093 2739 
C 1882 2816 1613 2816 1542 2816 
C 710 2816 211 2093 211 1363 
C 211 595 768 -64 1517 -64 
C 1946 -64 2253 76 2502 242 
L 2464 664 
C 2189 453 1869 337 1523 337 
C 1024 337 698 774 698 1369 
C 698 1831 909 2414 1549 2414 
C 1901 2414 2099 2343 2394 2145 
L 2464 2541 
z
" transform="scale(0.015625)"/>
       <path id="CMSS17-79" d="M 2675 2752 
L 2176 2752 
C 1632 1294 1446 702 1434 383 
L 1427 383 
C 1408 696 1126 1460 902 2007 
L 602 2752 
L 83 2752 
L 1216 13 
C 1146 -178 1043 -465 1011 -529 
C 870 -885 774 -885 672 -885 
C 646 -885 442 -885 211 -809 
L 250 -1229 
C 410 -1261 570 -1280 685 -1280 
C 845 -1280 1165 -1280 1459 -497 
L 2675 2752 
z
" transform="scale(0.015625)"/>
       <path id="CMSS17-28" d="M 1613 4768 
C 1267 4417 474 3601 474 1588 
C 474 -433 1267 -1243 1613 -1600 
L 2003 -1600 
C 1216 -784 960 357 960 1581 
C 960 2798 1203 3946 2003 4768 
L 1613 4768 
z
" transform="scale(0.015625)"/>
       <path id="CMSS17-48" d="M 3674 4416 
L 3136 4416 
L 3136 2501 
L 1101 2501 
L 1101 4416 
L 563 4416 
L 563 0 
L 1101 0 
L 1101 2112 
L 3136 2112 
L 3136 0 
L 3674 0 
L 3674 4416 
z
" transform="scale(0.015625)"/>
       <path id="CMSS17-7a" d="M 2400 2502 
L 2400 2750 
L 250 2750 
L 250 2368 
L 1069 2368 
C 1146 2368 1222 2368 1299 2368 
L 1747 2368 
L 166 261 
L 166 0 
L 2419 0 
L 2419 395 
L 1549 395 
C 1472 395 1395 395 1318 395 
L 826 395 
L 2400 2502 
z
" transform="scale(0.015625)"/>
       <path id="CMSS17-29" d="M 723 -1600 
C 1069 -1249 1862 -433 1862 1581 
C 1862 3601 1069 4411 723 4768 
L 333 4768 
C 1120 3952 1376 2811 1376 1588 
C 1376 370 1133 -778 333 -1600 
L 723 -1600 
z
" transform="scale(0.015625)"/>
      </defs>
      <use xlink:href="#CMSS17-52" transform="scale(0.996264)"/>
      <use xlink:href="#CMSS17-65" transform="translate(60.416155 0) scale(0.996264)"/>
      <use xlink:href="#CMSS17-71" transform="translate(102.054977 0) scale(0.996264)"/>
      <use xlink:href="#CMSS17-75" transform="translate(150.25992 0) scale(0.996264)"/>
      <use xlink:href="#CMSS17-65" transform="translate(198.464863 0) scale(0.996264)"/>
      <use xlink:href="#CMSS17-73" transform="translate(240.103685 0) scale(0.996264)"/>
      <use xlink:href="#CMSS17-74" transform="translate(276.017227 0) scale(0.996264)"/>
      <use xlink:href="#CMSS17-46" transform="translate(341.077907 0) scale(0.996264)"/>
      <use xlink:href="#CMSS17-72" transform="translate(391.765012 0) scale(0.996264)"/>
      <use xlink:href="#CMSS17-65" transform="translate(423.674785 0) scale(0.996264)"/>
      <use xlink:href="#CMSS17-71" transform="translate(465.313607 0) scale(0.996264)"/>
      <use xlink:href="#CMSS17-75" transform="translate(513.51855 0) scale(0.996264)"/>
      <use xlink:href="#CMSS17-65" transform="translate(561.723493 0) scale(0.996264)"/>
      <use xlink:href="#CMSS17-6e" transform="translate(603.362315 0) scale(0.996264)"/>
      <use xlink:href="#CMSS17-63" transform="translate(651.567258 0) scale(0.996264)"/>
      <use xlink:href="#CMSS17-79" transform="translate(693.20608 0) scale(0.996264)"/>
      <use xlink:href="#CMSS17-28" transform="translate(767.435335 0) scale(0.996264)"/>
      <use xlink:href="#CMSS17-48" transform="translate(803.869249 0) scale(0.996264)"/>
      <use xlink:href="#CMSS17-7a" transform="translate(869.930768 0) scale(0.996264)"/>
      <use xlink:href="#CMSS17-29" transform="translate(910.60864 0) scale(0.996264)"/>
     </g>
    </g>
   </g>
   <g id="matplotlib.axis_2">
    <g id="ytick_1">
     <g id="line2d_29">
      <path d="M 36 114.465052 
L 259.2 114.465052 
" clip-path="url(#pd48f4ec94a)" style="fill: none; stroke: #b0b0b0; stroke-width: 0.8; stroke-linecap: square"/>
     </g>
     <g id="line2d_30">
      <defs>
       <path id="m9f9fe0afdd" d="M 0 0 
L -3.5 0 
" style="stroke: #000000; stroke-width: 0.8"/>
      </defs>
      <g>
       <use xlink:href="#m9f9fe0afdd" x="36" y="114.465052" style="stroke: #000000; stroke-width: 0.8"/>
      </g>
     </g>
     <g id="text_4">
      <!-- $\mathdefault{10^{0}}$ -->
      <g transform="translate(15.066092 117.924301) scale(0.1 -0.1)">
       <use xlink:href="#CMR17-31" transform="scale(0.996264)"/>
       <use xlink:href="#CMR17-30" transform="translate(45.690477 0) scale(0.996264)"/>
       <use xlink:href="#CMR17-30" transform="translate(91.380954 36.153639) scale(0.697382)"/>
      </g>
     </g>
    </g>
    <g id="ytick_2">
     <g id="line2d_31">
      <path d="M 36 215.044234 
L 259.2 215.044234 
" clip-path="url(#pd48f4ec94a)" style="fill: none; stroke-dasharray: 0.3,0.495; stroke-dashoffset: 0; stroke: #b0b0b0; stroke-width: 0.3"/>
     </g>
     <g id="line2d_32">
      <defs>
       <path id="ma3b0ebee4e" d="M 0 0 
L -2 0 
" style="stroke: #000000; stroke-width: 0.6"/>
      </defs>
      <g>
       <use xlink:href="#ma3b0ebee4e" x="36" y="215.044234" style="stroke: #000000; stroke-width: 0.6"/>
      </g>
     </g>
    </g>
    <g id="ytick_3">
     <g id="line2d_33">
      <path d="M 36 189.705357 
L 259.2 189.705357 
" clip-path="url(#pd48f4ec94a)" style="fill: none; stroke-dasharray: 0.3,0.495; stroke-dashoffset: 0; stroke: #b0b0b0; stroke-width: 0.3"/>
     </g>
     <g id="line2d_34">
      <g>
       <use xlink:href="#ma3b0ebee4e" x="36" y="189.705357" style="stroke: #000000; stroke-width: 0.6"/>
      </g>
     </g>
    </g>
    <g id="ytick_4">
     <g id="line2d_35">
      <path d="M 36 171.727138 
L 259.2 171.727138 
" clip-path="url(#pd48f4ec94a)" style="fill: none; stroke-dasharray: 0.3,0.495; stroke-dashoffset: 0; stroke: #b0b0b0; stroke-width: 0.3"/>
     </g>
     <g id="line2d_36">
      <g>
       <use xlink:href="#ma3b0ebee4e" x="36" y="171.727138" style="stroke: #000000; stroke-width: 0.6"/>
      </g>
     </g>
    </g>
    <g id="ytick_5">
     <g id="line2d_37">
      <path d="M 36 157.782148 
L 259.2 157.782148 
" clip-path="url(#pd48f4ec94a)" style="fill: none; stroke-dasharray: 0.3,0.495; stroke-dashoffset: 0; stroke: #b0b0b0; stroke-width: 0.3"/>
     </g>
     <g id="line2d_38">
      <g>
       <use xlink:href="#ma3b0ebee4e" x="36" y="157.782148" style="stroke: #000000; stroke-width: 0.6"/>
      </g>
     </g>
    </g>
    <g id="ytick_6">
     <g id="line2d_39">
      <path d="M 36 146.388261 
L 259.2 146.388261 
" clip-path="url(#pd48f4ec94a)" style="fill: none; stroke-dasharray: 0.3,0.495; stroke-dashoffset: 0; stroke: #b0b0b0; stroke-width: 0.3"/>
     </g>
     <g id="line2d_40">
      <g>
       <use xlink:href="#ma3b0ebee4e" x="36" y="146.388261" style="stroke: #000000; stroke-width: 0.6"/>
      </g>
     </g>
    </g>
    <g id="ytick_7">
     <g id="line2d_41">
      <path d="M 36 136.754867 
L 259.2 136.754867 
" clip-path="url(#pd48f4ec94a)" style="fill: none; stroke-dasharray: 0.3,0.495; stroke-dashoffset: 0; stroke: #b0b0b0; stroke-width: 0.3"/>
     </g>
     <g id="line2d_42">
      <g>
       <use xlink:href="#ma3b0ebee4e" x="36" y="136.754867" style="stroke: #000000; stroke-width: 0.6"/>
      </g>
     </g>
    </g>
    <g id="ytick_8">
     <g id="line2d_43">
      <path d="M 36 128.410042 
L 259.2 128.410042 
" clip-path="url(#pd48f4ec94a)" style="fill: none; stroke-dasharray: 0.3,0.495; stroke-dashoffset: 0; stroke: #b0b0b0; stroke-width: 0.3"/>
     </g>
     <g id="line2d_44">
      <g>
       <use xlink:href="#ma3b0ebee4e" x="36" y="128.410042" style="stroke: #000000; stroke-width: 0.6"/>
      </g>
     </g>
    </g>
    <g id="ytick_9">
     <g id="line2d_45">
      <path d="M 36 121.049384 
L 259.2 121.049384 
" clip-path="url(#pd48f4ec94a)" style="fill: none; stroke-dasharray: 0.3,0.495; stroke-dashoffset: 0; stroke: #b0b0b0; stroke-width: 0.3"/>
     </g>
     <g id="line2d_46">
      <g>
       <use xlink:href="#ma3b0ebee4e" x="36" y="121.049384" style="stroke: #000000; stroke-width: 0.6"/>
      </g>
     </g>
    </g>
    <g id="ytick_10">
     <g id="line2d_47">
      <path d="M 36 71.147956 
L 259.2 71.147956 
" clip-path="url(#pd48f4ec94a)" style="fill: none; stroke-dasharray: 0.3,0.495; stroke-dashoffset: 0; stroke: #b0b0b0; stroke-width: 0.3"/>
     </g>
     <g id="line2d_48">
      <g>
       <use xlink:href="#ma3b0ebee4e" x="36" y="71.147956" style="stroke: #000000; stroke-width: 0.6"/>
      </g>
     </g>
    </g>
    <g id="ytick_11">
     <g id="line2d_49">
      <path d="M 36 45.809079 
L 259.2 45.809079 
" clip-path="url(#pd48f4ec94a)" style="fill: none; stroke-dasharray: 0.3,0.495; stroke-dashoffset: 0; stroke: #b0b0b0; stroke-width: 0.3"/>
     </g>
     <g id="line2d_50">
      <g>
       <use xlink:href="#ma3b0ebee4e" x="36" y="45.809079" style="stroke: #000000; stroke-width: 0.6"/>
      </g>
     </g>
    </g>
    <g id="text_5">
     <!-- Response Latency (ms) -->
     <g transform="translate(8.575432 193.931831) rotate(-90) scale(0.1 -0.1)">
      <defs>
       <path id="CMSS17-70" d="M 966 333 
C 1178 129 1466 -5 1773 -5 
C 2368 -5 2880 603 2880 1412 
C 2880 2159 2496 2816 1946 2816 
C 1626 2816 1242 2702 954 2472 
L 954 2765 
L 480 2765 
L 480 -1216 
L 966 -1216 
L 966 333 
z
M 966 2100 
C 1018 2176 1235 2415 1587 2415 
C 2035 2415 2394 1960 2394 1412 
C 2394 787 1958 384 1530 384 
C 1402 384 1267 415 1139 523 
C 966 674 966 768 966 857 
L 966 2100 
z
" transform="scale(0.015625)"/>
       <path id="CMSS17-6f" d="M 2829 1356 
C 2829 2176 2221 2816 1504 2816 
C 768 2816 173 2157 173 1356 
C 173 544 787 -64 1498 -64 
C 2227 -64 2829 563 2829 1356 
z
M 1504 337 
C 1050 337 659 709 659 1408 
C 659 2151 1114 2427 1498 2427 
C 1914 2427 2342 2126 2342 1408 
C 2342 683 1926 337 1504 337 
z
" transform="scale(0.015625)"/>
       <path id="CMSS17-4c" d="M 1670 414 
C 1594 414 1517 414 1440 414 
L 1101 414 
L 1101 4416 
L 563 4416 
L 563 0 
L 3002 0 
L 3002 414 
L 1670 414 
z
" transform="scale(0.015625)"/>
       <path id="CMSS17-61" d="M 2406 1791 
C 2406 2392 1978 2808 1402 2808 
C 1120 2808 813 2757 461 2553 
L 499 2135 
C 659 2248 934 2432 1395 2432 
C 1722 2432 1920 2180 1920 1782 
L 1920 1536 
C 896 1536 256 1238 256 726 
C 256 461 416 -64 947 -64 
C 1043 -64 1562 -64 1933 217 
L 1933 -19 
L 2406 -19 
L 2406 1791 
z
M 1920 816 
C 1920 701 1920 548 1728 434 
C 1562 325 1350 325 1261 325 
C 941 325 723 511 723 744 
C 723 1211 1722 1211 1920 1211 
L 1920 816 
z
" transform="scale(0.015625)"/>
       <path id="CMSS17-6d" d="M 4288 1877 
C 4288 2308 4179 2816 3462 2816 
C 2982 2816 2694 2516 2566 2331 
C 2451 2670 2182 2816 1798 2816 
C 1363 2816 1088 2568 941 2389 
L 941 2758 
L 474 2758 
L 474 0 
L 960 0 
L 960 1559 
C 960 1939 1101 2428 1555 2428 
C 2138 2428 2138 2016 2138 1829 
L 2138 0 
L 2624 0 
L 2624 1559 
C 2624 1939 2765 2428 3219 2428 
C 3802 2428 3802 2016 3802 1829 
L 3802 0 
L 4288 0 
L 4288 1877 
z
" transform="scale(0.015625)"/>
      </defs>
      <use xlink:href="#CMSS17-52" transform="scale(0.996264)"/>
      <use xlink:href="#CMSS17-65" transform="translate(60.416155 0) scale(0.996264)"/>
      <use xlink:href="#CMSS17-73" transform="translate(102.054977 0) scale(0.996264)"/>
      <use xlink:href="#CMSS17-70" transform="translate(137.968519 0) scale(0.996264)"/>
      <use xlink:href="#CMSS17-6f" transform="translate(188.775901 0) scale(0.996264)"/>
      <use xlink:href="#CMSS17-6e" transform="translate(235.619524 0) scale(0.996264)"/>
      <use xlink:href="#CMSS17-73" transform="translate(283.824467 0) scale(0.996264)"/>
      <use xlink:href="#CMSS17-65" transform="translate(319.738009 0) scale(0.996264)"/>
      <use xlink:href="#CMSS17-4c" transform="translate(392.605944 0) scale(0.996264)"/>
      <use xlink:href="#CMSS17-61" transform="translate(443.29305 0) scale(0.996264)"/>
      <use xlink:href="#CMSS17-74" transform="translate(488.21497 0) scale(0.996264)"/>
      <use xlink:href="#CMSS17-65" transform="translate(522.046537 0) scale(0.996264)"/>
      <use xlink:href="#CMSS17-6e" transform="translate(563.685359 0) scale(0.996264)"/>
      <use xlink:href="#CMSS17-63" transform="translate(611.890302 0) scale(0.996264)"/>
      <use xlink:href="#CMSS17-79" transform="translate(653.529124 0) scale(0.996264)"/>
      <use xlink:href="#CMSS17-28" transform="translate(727.758379 0) scale(0.996264)"/>
      <use xlink:href="#CMSS17-6d" transform="translate(764.192293 0) scale(0.996264)"/>
      <use xlink:href="#CMSS17-73" transform="translate(838.421547 0) scale(0.996264)"/>
      <use xlink:href="#CMSS17-29" transform="translate(874.335089 0) scale(0.996264)"/>
     </g>
    </g>
   </g>
   <g id="line2d_51">
    <path d="M 46.145455 236.628303 
L 51.559891 237.290765 
L 56.993631 236.940245 
L 62.471137 238.451451 
L 67.948039 236.877732 
L 73.365134 238.021674 
L 78.847286 238.725621 
L 84.357115 238.464176 
L 89.843821 239.29003 
L 95.375283 238.123756 
L 100.90578 239.863767 
L 106.374152 239.239848 
L 111.881408 240.636879 
L 117.380607 237.663003 
L 122.809284 238.021674 
L 128.327705 238.093475 
L 133.905759 238.025285 
L 139.501327 244.980821 
L 145.057298 241.756063 
L 150.498497 237.512409 
L 156.121811 244.773822 
L 161.926038 244.321421 
L 167.422173 244.567506 
L 172.975396 243.258751 
L 178.54349 242.80789 
L 184.069381 244.772313 
L 189.478143 243.957576 
L 195.457251 241.787213 
L 201.261478 244.23911 
L 206.757613 243.215088 
L 212.843695 243.787085 
L 218.467009 243.461277 
L 224.709455 244.051445 
L 230.250344 243.616564 
L 236.391362 243.254334 
L 243.278475 244.817582 
L 249.054545 246.24 
" clip-path="url(#pd48f4ec94a)" style="fill: none; stroke: #1f77b4; stroke-width: 1.5; stroke-linecap: square"/>
   </g>
   <g id="line2d_52">
    <path d="M 46.145455 230.526568 
L 51.559891 229.990059 
L 56.993631 229.518748 
L 62.471137 228.6651 
L 67.948039 227.557849 
L 73.365134 226.207072 
L 78.847286 225.002027 
L 84.357115 223.85251 
L 89.843821 222.882245 
L 95.375283 222.10498 
L 100.90578 220.938025 
L 106.374152 219.799205 
L 111.881408 218.588764 
L 117.380607 217.131293 
L 122.809284 215.326402 
L 128.327705 212.196666 
L 133.905759 207.493884 
L 139.501327 203.024908 
L 145.057298 200.726398 
L 150.498497 196.797247 
L 156.121811 192.971835 
L 161.926038 188.411075 
L 167.422173 185.411178 
L 172.975396 184.53366 
L 178.54349 182.93127 
L 184.069381 180.655871 
L 189.478143 176.957127 
L 195.457251 173.508667 
L 201.261478 169.791237 
L 206.757613 152.984399 
L 212.843695 157.249109 
L 218.467009 155.939773 
L 224.709455 148.911162 
L 230.250344 144.522833 
L 236.391362 139.221309 
L 243.278475 134.041962 
L 249.054545 132.972533 
" clip-path="url(#pd48f4ec94a)" style="fill: none; stroke: #ff7f0e; stroke-width: 1.5; stroke-linecap: square"/>
   </g>
   <g id="line2d_53">
    <path d="M 46.145455 226.352188 
L 51.559891 222.862058 
L 56.993631 207.290137 
L 62.471137 198.88686 
L 67.948039 197.585771 
L 73.365134 196.847903 
L 78.847286 196.380718 
L 84.357115 196.087492 
L 89.843821 195.374074 
L 95.375283 194.60762 
L 100.90578 193.207351 
L 106.374152 192.106699 
L 111.881408 190.869765 
L 117.380607 189.248951 
L 122.809284 188.327881 
L 128.327705 187.403925 
L 133.905759 186.253473 
L 139.501327 185.245508 
L 145.057298 183.595899 
L 150.498497 181.713154 
L 156.121811 181.636214 
L 161.926038 171.625668 
L 167.422173 165.60323 
L 172.975396 163.378465 
L 178.54349 160.796897 
L 184.069381 156.016274 
L 189.478143 154.776787 
L 195.457251 157.647058 
L 201.261478 149.637073 
L 206.757613 128.647577 
L 212.843695 126.188295 
L 218.467009 123.652081 
L 224.709455 114.809714 
L 230.250344 108.197845 
L 236.391362 100.57553 
L 243.278475 97.117563 
L 249.054545 98.495047 
" clip-path="url(#pd48f4ec94a)" style="fill: none; stroke: #2ca02c; stroke-width: 1.5; stroke-linecap: square"/>
   </g>
   <g id="line2d_54">
    <path d="M 46.145455 197.713744 
L 51.559891 195.815387 
L 56.993631 194.881747 
L 62.471137 194.169579 
L 67.948039 193.474064 
L 73.365134 192.781827 
L 78.847286 192.034007 
L 84.357115 191.66794 
L 89.843821 190.025726 
L 95.375283 189.259499 
L 100.90578 188.189878 
L 106.374152 187.354352 
L 111.881408 185.736412 
L 117.380607 184.393444 
L 122.809284 182.789379 
L 128.327705 179.035186 
L 133.905759 174.943812 
L 139.501327 171.946562 
L 145.057298 169.821538 
L 150.498497 166.9623 
L 156.121811 166.3224 
L 161.926038 157.931685 
L 167.422173 154.18909 
L 172.975396 151.08448 
L 178.54349 146.927398 
L 184.069381 142.664063 
L 189.478143 138.84105 
L 195.457251 136.358491 
L 201.261478 131.507003 
L 206.757613 121.304809 
L 212.843695 116.476428 
L 218.467009 109.338973 
L 224.709455 101.382646 
L 230.250344 93.497392 
L 236.391362 86.349264 
L 243.278475 80.067065 
L 249.054545 76.792136 
" clip-path="url(#pd48f4ec94a)" style="fill: none; stroke: #d62728; stroke-width: 1.5; stroke-linecap: square"/>
   </g>
   <g id="line2d_55">
    <path d="M 46.145455 194.801913 
L 51.559891 191.417374 
L 56.993631 189.2413 
L 62.471137 189.135936 
L 67.948039 189.01097 
L 73.365134 188.553863 
L 78.847286 188.405974 
L 84.357115 188.05583 
L 89.843821 186.4962 
L 95.375283 185.770632 
L 100.90578 184.962961 
L 106.374152 184.257934 
L 111.881408 182.438463 
L 117.380607 181.732954 
L 122.809284 173.92851 
L 128.327705 170.869393 
L 133.905759 168.150751 
L 139.501327 165.79816 
L 145.057298 163.943515 
L 150.498497 161.23481 
L 156.121811 158.606727 
L 161.926038 152.566321 
L 167.422173 149.036761 
L 172.975396 145.366457 
L 178.54349 140.981135 
L 184.069381 136.618156 
L 189.478143 132.854494 
L 195.457251 129.204993 
L 201.261478 124.183286 
L 206.757613 116.84817 
L 212.843695 110.075088 
L 218.467009 102.180092 
L 224.709455 92.156797 
L 230.250344 84.129499 
L 236.391362 77.180933 
L 243.278475 68.425605 
L 249.054545 62.851003 
" clip-path="url(#pd48f4ec94a)" style="fill: none; stroke: #9467bd; stroke-width: 1.5; stroke-linecap: square"/>
   </g>
   <g id="line2d_56">
    <path d="M 46.145455 157.740916 
L 51.559891 161.444519 
L 56.993631 185.118785 
L 62.471137 185.87615 
L 67.948039 184.433446 
L 73.365134 156.888907 
L 78.847286 182.113485 
L 84.357115 182.125662 
L 89.843821 160.081572 
L 95.375283 179.577194 
L 100.90578 180.338933 
L 106.374152 176.532705 
L 111.881408 162.067859 
L 117.380607 170.904847 
L 122.809284 166.317958 
L 128.327705 159.10108 
L 133.905759 162.134154 
L 139.501327 152.30552 
L 145.057298 156.525257 
L 150.498497 152.440661 
L 156.121811 151.515902 
L 161.926038 145.785306 
L 167.422173 139.976711 
L 172.975396 130.82321 
L 178.54349 123.0724 
L 184.069381 130.239735 
L 189.478143 125.935802 
L 195.457251 118.144389 
L 201.261478 113.656886 
L 206.757613 105.249292 
L 212.843695 89.039162 
L 218.467009 83.167877 
L 224.709455 78.225147 
L 230.250344 57.990524 
L 236.391362 58.832148 
L 243.278475 44.64 
L 249.054545 45.331295 
" clip-path="url(#pd48f4ec94a)" style="fill: none; stroke: #8c564b; stroke-width: 1.5; stroke-linecap: square"/>
   </g>
   <g id="patch_3">
    <path d="M 36 256.32 
L 36 34.56 
" style="fill: none; stroke: #000000; stroke-width: 0.8; stroke-linejoin: miter; stroke-linecap: square"/>
   </g>
   <g id="patch_4">
    <path d="M 259.2 256.32 
L 259.2 34.56 
" style="fill: none; stroke: #000000; stroke-width: 0.8; stroke-linejoin: miter; stroke-linecap: square"/>
   </g>
   <g id="patch_5">
    <path d="M 36 256.32 
L 259.2 256.32 
" style="fill: none; stroke: #000000; stroke-width: 0.8; stroke-linejoin: miter; stroke-linecap: square"/>
   </g>
   <g id="patch_6">
    <path d="M 36 34.56 
L 259.2 34.56 
" style="fill: none; stroke: #000000; stroke-width: 0.8; stroke-linejoin: miter; stroke-linecap: square"/>
   </g>
   <g id="text_6">
    <!-- Get -->
    <g transform="translate(138.983098 28.56) scale(0.12 -0.12)">
     <defs>
      <path id="CMSS17-47" d="M 3610 1856 
L 2336 1856 
L 2336 1461 
L 3123 1461 
L 3123 471 
C 2874 401 2618 350 2362 350 
C 1466 350 934 1301 934 2200 
C 934 3095 1491 4032 2362 4032 
C 2854 4032 3130 3881 3469 3627 
L 3552 4134 
C 3130 4351 2867 4440 2387 4440 
C 1146 4440 397 3324 397 2182 
C 397 1090 1152 -64 2349 -64 
C 2797 -64 3213 51 3610 248 
L 3610 1856 
z
" transform="scale(0.015625)"/>
     </defs>
     <use xlink:href="#CMSS17-47" transform="scale(0.996264)"/>
     <use xlink:href="#CMSS17-65" transform="translate(62.458226 0) scale(0.996264)"/>
     <use xlink:href="#CMSS17-74" transform="translate(104.097048 0) scale(0.996264)"/>
    </g>
   </g>
   <g id="legend_1">
    <g id="patch_7">
     <path d="M 43 126.18307 
L 95.67599 126.18307 
Q 97.67599 126.18307 97.67599 124.18307 
L 97.67599 41.56 
Q 97.67599 39.56 95.67599 39.56 
L 43 39.56 
Q 41 39.56 41 41.56 
L 41 124.18307 
Q 41 126.18307 43 126.18307 
z
" style="fill: #ffffff; opacity: 0.8; stroke: #cccccc; stroke-linejoin: miter"/>
    </g>
    <g id="line2d_57">
     <path d="M 45 47.06 
L 55 47.06 
L 65 47.06 
" style="fill: none; stroke: #1f77b4; stroke-width: 1.5; stroke-linecap: square"/>
    </g>
    <g id="text_7">
     <!-- $P_0$ -->
     <g transform="translate(73 50.56) scale(0.1 -0.1)">
      <defs>
       <path id="CMMI12-50" d="M 1894 2023 
L 2970 2023 
C 3853 2023 4736 2673 4736 3401 
C 4736 3898 4314 4352 3507 4352 
L 1530 4352 
C 1408 4352 1350 4352 1350 4231 
C 1350 4167 1408 4167 1504 4167 
C 1894 4167 1894 4116 1894 4046 
C 1894 4034 1894 3995 1869 3899 
L 1005 472 
C 947 249 934 185 486 185 
C 365 185 301 185 301 70 
C 301 0 358 0 397 0 
C 518 0 646 0 768 0 
L 1517 0 
C 1638 0 1773 0 1894 0 
C 1946 0 2016 0 2016 121 
C 2016 185 1958 185 1862 185 
C 1478 185 1472 230 1472 293 
C 1472 325 1478 369 1485 401 
L 1894 2023 
z
M 2355 3930 
C 2413 4167 2438 4167 2688 4167 
L 3322 4167 
C 3802 4167 4198 4013 4198 3535 
C 4198 3369 4115 2827 3821 2534 
C 3712 2419 3405 2176 2822 2176 
L 1920 2176 
L 2355 3930 
z
" transform="scale(0.015625)"/>
      </defs>
      <use xlink:href="#CMMI12-50" transform="scale(0.996264)"/>
      <use xlink:href="#CMR17-30" transform="translate(62.877232 -14.943915) scale(0.697382)"/>
     </g>
    </g>
    <g id="line2d_58">
     <path d="M 45 60.997178 
L 55 60.997178 
L 65 60.997178 
" style="fill: none; stroke: #ff7f0e; stroke-width: 1.5; stroke-linecap: square"/>
    </g>
    <g id="text_8">
     <!-- $P_{50}$ -->
     <g transform="translate(73 64.497178) scale(0.1 -0.1)">
      <defs>
       <path id="CMR17-35" d="M 730 3692 
C 794 3666 1056 3584 1325 3584 
C 1920 3584 2246 3911 2432 4100 
C 2432 4157 2432 4192 2394 4192 
C 2387 4192 2374 4192 2323 4163 
C 2099 4058 1837 3973 1517 3973 
C 1325 3973 1037 3999 723 4139 
C 653 4171 640 4171 634 4171 
C 602 4171 595 4164 595 4037 
L 595 2203 
C 595 2089 595 2057 659 2057 
C 691 2057 704 2070 736 2114 
C 941 2401 1222 2522 1542 2522 
C 1766 2522 2246 2382 2246 1289 
C 2246 1085 2246 715 2054 421 
C 1894 159 1645 25 1370 25 
C 947 25 518 320 403 814 
C 429 807 480 795 506 795 
C 589 795 749 840 749 1038 
C 749 1210 627 1280 506 1280 
C 358 1280 262 1190 262 1011 
C 262 454 704 -128 1382 -128 
C 2042 -128 2669 440 2669 1264 
C 2669 2030 2170 2624 1549 2624 
C 1222 2624 947 2503 730 2274 
L 730 3692 
z
" transform="scale(0.015625)"/>
      </defs>
      <use xlink:href="#CMMI12-50" transform="scale(0.996264)"/>
      <use xlink:href="#CMR17-35" transform="translate(62.877232 -14.943915) scale(0.697382)"/>
      <use xlink:href="#CMR17-30" transform="translate(94.860414 -14.943915) scale(0.697382)"/>
     </g>
    </g>
    <g id="line2d_59">
     <path d="M 45 74.934357 
L 55 74.934357 
L 65 74.934357 
" style="fill: none; stroke: #2ca02c; stroke-width: 1.5; stroke-linecap: square"/>
    </g>
    <g id="text_9">
     <!-- $P_{90}$ -->
     <g transform="translate(73 78.434357) scale(0.1 -0.1)">
      <defs>
       <path id="CMR17-39" d="M 2253 1864 
C 2253 464 1670 31 1190 31 
C 1043 31 685 31 538 294 
C 704 268 826 357 826 518 
C 826 692 685 749 595 749 
C 538 749 365 723 365 506 
C 365 71 742 -128 1203 -128 
C 1939 -128 2688 674 2688 2073 
C 2688 3817 1971 4179 1485 4179 
C 851 4179 243 3628 243 2778 
C 243 1991 762 1408 1414 1408 
C 1952 1408 2189 1903 2253 2112 
L 2253 1864 
z
M 1427 1510 
C 1254 1510 1011 1542 813 1922 
C 678 2169 678 2461 678 2771 
C 678 3146 678 3405 858 3684 
C 947 3817 1114 4032 1485 4032 
C 2240 4032 2240 2885 2240 2632 
C 2240 2182 2035 1510 1427 1510 
z
" transform="scale(0.015625)"/>
      </defs>
      <use xlink:href="#CMMI12-50" transform="scale(0.996264)"/>
      <use xlink:href="#CMR17-39" transform="translate(62.877232 -14.943915) scale(0.697382)"/>
      <use xlink:href="#CMR17-30" transform="translate(94.860414 -14.943915) scale(0.697382)"/>
     </g>
    </g>
    <g id="line2d_60">
     <path d="M 45 88.871535 
L 55 88.871535 
L 65 88.871535 
" style="fill: none; stroke: #d62728; stroke-width: 1.5; stroke-linecap: square"/>
    </g>
    <g id="text_10">
     <!-- $P_{99}$ -->
     <g transform="translate(73 92.371535) scale(0.1 -0.1)">
      <use xlink:href="#CMMI12-50" transform="scale(0.996264)"/>
      <use xlink:href="#CMR17-39" transform="translate(62.877232 -14.943915) scale(0.697382)"/>
      <use xlink:href="#CMR17-39" transform="translate(94.860414 -14.943915) scale(0.697382)"/>
     </g>
    </g>
    <g id="line2d_61">
     <path d="M 45 102.808713 
L 55 102.808713 
L 65 102.808713 
" style="fill: none; stroke: #9467bd; stroke-width: 1.5; stroke-linecap: square"/>
    </g>
    <g id="text_11">
     <!-- $P_{99.9}$ -->
     <g transform="translate(73 106.308713) scale(0.1 -0.1)">
      <defs>
       <path id="CMMI12-3a" d="M 1178 307 
C 1178 492 1024 619 870 619 
C 685 619 557 466 557 313 
C 557 128 710 0 864 0 
C 1050 0 1178 153 1178 307 
z
" transform="scale(0.015625)"/>
      </defs>
      <use xlink:href="#CMMI12-50" transform="scale(0.996264)"/>
      <use xlink:href="#CMR17-39" transform="translate(62.877232 -14.943915) scale(0.697382)"/>
      <use xlink:href="#CMR17-39" transform="translate(94.860414 -14.943915) scale(0.697382)"/>
      <use xlink:href="#CMMI12-3a" transform="translate(126.843596 -14.943915) scale(0.697382)"/>
      <use xlink:href="#CMR17-39" transform="translate(145.811529 -14.943915) scale(0.697382)"/>
     </g>
    </g>
    <g id="line2d_62">
     <path d="M 45 116.745892 
L 55 116.745892 
L 65 116.745892 
" style="fill: none; stroke: #8c564b; stroke-width: 1.5; stroke-linecap: square"/>
    </g>
    <g id="text_12">
     <!-- $P_{100}$ -->
     <g transform="translate(73 120.245892) scale(0.1 -0.1)">
      <use xlink:href="#CMMI12-50" transform="scale(0.996264)"/>
      <use xlink:href="#CMR17-31" transform="translate(62.877232 -14.943915) scale(0.697382)"/>
      <use xlink:href="#CMR17-30" transform="translate(94.860414 -14.943915) scale(0.697382)"/>
      <use xlink:href="#CMR17-30" transform="translate(126.843596 -14.943915) scale(0.697382)"/>
     </g>
    </g>
   </g>
  </g>
 </g>
 <defs>
  <clipPath id="pd48f4ec94a">
   <rect x="36" y="34.56" width="223.2" height="221.76"/>
  </clipPath>
 </defs>
</svg>
